<svg xmlns="http://www.w3.org/2000/svg" width="16.695" height="16.695" viewBox="0 0 16.695 16.695"><defs><style>.a{fill:#3b5999;}.b{fill:#fff;}</style></defs><path class="a" d="M14.608,0H2.087A2.088,2.088,0,0,0,0,2.087V14.608a2.089,2.089,0,0,0,2.087,2.087H14.608a2.089,2.089,0,0,0,2.087-2.087V2.087A2.089,2.089,0,0,0,14.608,0Z"/><path class="b" d="M14.217,9.717V7.63c0-.576.467-.522,1.043-.522H16.3V4.5H14.217a3.13,3.13,0,0,0-3.13,3.13V9.717H9v2.609h2.087v5.739h3.13V12.326h1.565l1.043-2.609Z" transform="translate(-2.739 -1.37)"/></svg>