<svg xmlns="http://www.w3.org/2000/svg" xmlns:xlink="http://www.w3.org/1999/xlink" width="12.347" height="12.347" viewBox="0 0 12.347 12.347"><defs><style>.a{fill:url(#a);}.b{fill:url(#b);}.c{fill:url(#c);}.d{fill:url(#d);}.e{fill:url(#e);}.f{fill:url(#f);}.g{fill:url(#g);}.h{fill:url(#h);}</style><linearGradient id="a" y1="0.5" x2="1" y2="0.5" gradientUnits="objectBoundingBox"><stop offset="0" stop-color="#ff637b"/><stop offset="1" stop-color="#f90217"/></linearGradient><linearGradient id="b" x1="0.799" y1="1.737" x2="0.065" y2="-0.534" xlink:href="#a"/><linearGradient id="c" x1="0.043" y1="0.309" x2="1.019" y2="0.694" gradientUnits="objectBoundingBox"><stop offset="0" stop-color="#ffd833"/><stop offset="1" stop-color="#f2b631"/></linearGradient><linearGradient id="d" x1="1.345" y1="0.738" x2="-0.149" y2="0.244" xlink:href="#c"/><linearGradient id="e" x1="0.44" y1="0.241" x2="0.655" y2="0.79" gradientUnits="objectBoundingBox"><stop offset="0" stop-color="#28a265"/><stop offset="1" stop-color="#28895e"/></linearGradient><linearGradient id="f" x1="0.831" y1="1.379" x2="0.082" y2="-0.9" xlink:href="#e"/><linearGradient id="g" x1="0.427" y1="0.134" x2="0.893" y2="0.685" gradientUnits="objectBoundingBox"><stop offset="0" stop-color="#7faef4"/><stop offset="1" stop-color="#4c8df1"/></linearGradient><linearGradient id="h" x1="1.023" y1="1.005" x2="0.265" y2="-0.088" xlink:href="#g"/></defs><g transform="translate(0 0)"><path class="a" d="M73.961,3.442A3.877,3.877,0,0,1,79.3,3.274a.259.259,0,0,0,.349-.011L80.91,2a.256.256,0,0,0-.007-.368,6.165,6.165,0,0,0-8.56.188,7,7,0,0,0,.021,1.614S73.272,4.137,73.961,3.442Z" transform="translate(-70.544 0)"/><path class="b" d="M99.591,45.242a3.877,3.877,0,0,1,5.341-.168.259.259,0,0,0,.349-.011l.722-.722c-.063-.049-.125-.1-.185-.153a5.223,5.223,0,0,0-3.527-1.35A5.118,5.118,0,0,0,98.7,44.35a3.23,3.23,0,0,0-.139.89S98.676,45.229,99.591,45.242Z" transform="translate(-96.173 -41.8)"/><path class="c" d="M2.289,79.655a3.873,3.873,0,0,0,1.15,2.794l-.551,1.189-1.068.43A6.165,6.165,0,0,1,1.8,75.34l1.618,1.618A3.87,3.87,0,0,0,2.289,79.655Z" transform="translate(0 -73.516)"/><path class="d" d="M44.094,108.919a3.874,3.874,0,0,0,1.15,2.794l-.885.885a5.145,5.145,0,0,1-.028-7.268l.892.892A3.87,3.87,0,0,0,44.094,108.919Z" transform="translate(-41.805 -102.78)"/><path class="e" d="M82.287,368.952a3.892,3.892,0,0,1-5.473,0L75.2,370.568a6.134,6.134,0,0,0,8.69-.016l-.463-.989Z" transform="translate(-73.376 -360.016)"/><path class="f" d="M111.848,368.952a3.892,3.892,0,0,1-5.472,0l-.885.885a5.136,5.136,0,0,0,7.239,0Z" transform="translate(-102.936 -360.016)"/><path class="g" d="M261.547,219.929a.22.22,0,0,0-.22-.22H255.58a.2.2,0,0,0-.2.2v1.9a.2.2,0,0,0,.2.2h2.807a.372.372,0,0,1,.32.563,3.871,3.871,0,0,1-.593.756l0,0,1.6,1.6.229-.227a6.232,6.232,0,0,0,1.607-4.182Z" transform="translate(-249.2 -214.39)"/><path class="h" d="M260.252,265.887a1.054,1.054,0,0,0-1-1.387h-3.868v1.013a.2.2,0,0,0,.2.2h2.807a.372.372,0,0,1,.32.563,3.871,3.871,0,0,1-.591.754l0,0,.882.882a5.14,5.14,0,0,0,1.11-1.637Q260.185,266.085,260.252,265.887Z" transform="translate(-249.201 -258.096)"/></g></svg>