<svg xmlns="http://www.w3.org/2000/svg" width="16.992" height="13.806" viewBox="0 0 16.992 13.806"><defs><style>.a{fill:#03a9f4;}</style></defs><path class="a" d="M16.992,49.634a7.263,7.263,0,0,1-2.007.55,3.464,3.464,0,0,0,1.532-1.925,6.962,6.962,0,0,1-2.209.843,3.483,3.483,0,0,0-6.026,2.382,3.587,3.587,0,0,0,.081.794,9.86,9.86,0,0,1-7.18-3.644,3.484,3.484,0,0,0,1.07,4.656A3.44,3.44,0,0,1,.68,52.862V52.9a3.5,3.5,0,0,0,2.791,3.423,3.477,3.477,0,0,1-.913.115,3.08,3.08,0,0,1-.659-.059A3.517,3.517,0,0,0,5.153,58.8,7,7,0,0,1,.834,60.29,6.525,6.525,0,0,1,0,60.243a9.807,9.807,0,0,0,5.344,1.563,9.846,9.846,0,0,0,9.915-9.913c0-.154-.005-.3-.013-.45A6.949,6.949,0,0,0,16.992,49.634Z" transform="translate(0 -48)"/></svg>